<svg width="69" height="90" viewBox="0 0 69 90" fill="none" xmlns="http://www.w3.org/2000/svg">
<path d="M22.284 29.24C22.284 31.184 21.636 32.636 20.34 33.596C19.716 34.052 19.068 34.412 18.396 34.676C17.748 34.916 17.112 35.036 16.488 35.036H8.64C8.016 35.036 7.368 34.916 6.696 34.676C6.048 34.412 5.412 34.052 4.788 33.596C4.164 33.116 3.684 32.528 3.348 31.832C3.012 31.112 2.844 30.248 2.844 29.24V7.964C2.844 6.812 3.552 6.236 4.968 6.236C6.408 6.236 7.128 6.812 7.128 7.964V28.952C7.128 29.576 7.308 30.14 7.668 30.644C8.028 31.148 8.652 31.4 9.54 31.4H15.588C16.476 31.4 17.1 31.148 17.46 30.644C17.82 30.14 18 29.576 18 28.952V7.964C18 6.812 18.708 6.236 20.124 6.236C21.564 6.236 22.284 6.812 22.284 7.964V29.24ZM48.0668 9.944L40.1828 34.136V34.1C40.0388 34.46 39.8348 34.76 39.5708 35C39.3308 35.216 39.0308 35.324 38.6708 35.324C38.4788 35.324 38.2868 35.3 38.0947 35.252C37.9268 35.228 37.7468 35.192 37.5548 35.144H37.5908C36.2228 34.712 35.7188 33.944 36.0788 32.84L44.2868 7.892C44.4068 7.508 44.6108 7.184 44.8988 6.92C45.2108 6.656 45.5708 6.5 45.9788 6.452C46.3868 6.38 46.7828 6.332 47.1668 6.308C47.5508 6.26 47.8508 6.236 48.0668 6.236C48.2828 6.236 48.5828 6.26 48.9668 6.308C49.3508 6.332 49.7468 6.368 50.1548 6.416C50.4908 6.464 50.8148 6.644 51.1268 6.956C51.4628 7.268 51.7148 7.58 51.8828 7.892C53.2268 12.02 54.5828 16.184 55.9508 20.384C57.3428 24.56 58.7108 28.712 60.0548 32.84C60.3908 33.944 59.8868 34.712 58.5428 35.144C58.3508 35.192 58.1708 35.228 58.0028 35.252C57.8588 35.3 57.6908 35.324 57.4988 35.324C57.1628 35.324 56.8508 35.216 56.5628 35C56.2988 34.76 56.1068 34.46 55.9868 34.1V34.136L48.0668 9.944ZM50.7668 26.36C50.7668 27.128 50.4908 27.788 49.9388 28.34C49.4108 28.868 48.7628 29.132 47.9948 29.132C47.2268 29.132 46.5788 28.868 46.0508 28.34C45.5228 27.788 45.2588 27.128 45.2588 26.36C45.2588 25.592 45.5228 24.944 46.0508 24.416C46.5788 23.864 47.2268 23.588 47.9948 23.588C48.7628 23.588 49.4108 23.864 49.9388 24.416C50.4908 24.944 50.7668 25.592 50.7668 26.36ZM10.692 69.416C10.284 69.416 9.96 69.26 9.72 68.948C9.504 68.612 9.396 68.168 9.396 67.616C9.396 66.392 9.9 65.78 10.908 65.78H14.724C15.612 65.78 16.236 65.528 16.596 65.024C16.98 64.52 17.172 63.968 17.172 63.368V57.464C17.172 56.864 16.98 56.312 16.596 55.808C16.236 55.304 15.612 55.052 14.724 55.052H7.164V78.56C7.164 79.712 6.444 80.288 5.004 80.288C3.612 80.288 2.916 79.712 2.916 78.56V53.576C2.916 52.712 3.132 52.136 3.564 51.848C3.996 51.56 4.524 51.416 5.148 51.416H15.66C16.26 51.416 16.896 51.548 17.568 51.812C18.24 52.076 18.888 52.412 19.512 52.82H19.476C20.1 53.276 20.58 53.876 20.916 54.62C21.252 55.34 21.42 56.18 21.42 57.14V63.656C21.42 65.6 20.772 67.052 19.476 68.012C18.852 68.468 18.216 68.816 17.568 69.056C16.92 69.296 16.284 69.416 15.66 69.416H10.692Z" fill="black"/>
</svg>
